<svg width="28" height="28" viewBox="0 0 28 28" fill="none" xmlns="http://www.w3.org/2000/svg">
<path fill-rule="evenodd" clip-rule="evenodd" d="M13.888 27.9969C6.36849 27.9969 0.274597 21.9031 0.274597 14.3859C0.274597 6.86707 6.36849 0.773193 13.888 0.773193C21.4053 0.773193 27.4991 6.86707 27.4991 14.3859C27.4991 21.9031 21.4053 27.9969 13.888 27.9969ZM10.8493 5.39008L10.1477 8.08663L9.41737 5.39008H8.3347C8.55249 6.02631 8.77804 6.66563 8.99504 7.30342C9.32481 8.26242 9.53016 8.98419 9.62426 9.47654V12.2586H10.6525V9.47654L11.8899 5.39008H10.8493ZM14.6386 8.80842C14.6386 8.26242 14.5445 7.86108 14.35 7.60286C14.0942 7.25286 13.7325 7.07786 13.2689 7.07786C12.8062 7.07786 12.4445 7.25286 12.1878 7.60286C11.9903 7.86263 11.8985 8.26242 11.8985 8.80842V10.6012C11.8985 11.1449 11.9903 11.5485 12.1878 11.8052C12.4445 12.1544 12.8062 12.3294 13.2689 12.3294C13.7325 12.3294 14.0942 12.1544 14.35 11.8052C14.5445 11.5485 14.6386 11.1449 14.6386 10.6012V8.80842ZM18.0678 7.14008H17.1407V11.0523C16.9354 11.3424 16.7409 11.4863 16.5543 11.4863C16.4306 11.4863 16.3575 11.4132 16.3365 11.2685C16.3256 11.239 16.3256 11.1262 16.3256 10.9084V7.14008H15.4008V11.1869C15.4008 11.5485 15.4327 11.7935 15.4825 11.9491C15.5766 12.2073 15.7819 12.3294 16.0814 12.3294C16.4197 12.3294 16.7705 12.1241 17.1407 11.7002V12.2586H18.0678V7.14008ZM21.2185 14.4986C21.0327 13.6905 20.3715 13.0955 19.576 13.0053C17.693 12.7961 15.7874 12.7945 13.8888 12.7961C11.9918 12.7945 10.0855 12.7961 8.2017 13.0053C7.4076 13.0955 6.74649 13.6905 6.56216 14.4986C6.29693 15.649 6.29381 16.9043 6.29381 18.0888C6.29381 19.2718 6.29381 20.5288 6.55749 21.6775C6.74416 22.4857 7.4037 23.0807 8.19937 23.1708C10.0824 23.3808 11.9887 23.3817 13.8865 23.3808C15.785 23.3817 17.6898 23.3808 19.5735 23.1708C20.3693 23.0807 21.0288 22.4857 21.2147 21.6775C21.48 20.5288 21.48 19.2718 21.48 18.0888C21.48 16.9043 21.4823 15.649 21.2185 14.4986ZM20.115 20.7512C19.8605 21.1198 19.485 21.3011 19.005 21.3011C18.5251 21.3011 18.1588 21.1284 17.8935 20.7815C17.6991 20.5288 17.6004 20.1289 17.6004 19.5915V17.8167C17.6004 17.2753 17.6883 16.8802 17.8827 16.6227C18.148 16.2759 18.5127 16.1032 18.9817 16.1032C19.443 16.1032 19.8084 16.2759 20.0644 16.6227C20.2573 16.8802 20.3483 17.2753 20.3483 17.8167V18.8651H18.5127V19.7642C18.5127 20.2324 18.6674 20.4658 18.9817 20.4658C19.2088 20.4658 19.3394 20.3437 19.3924 20.0987C19.401 20.0488 19.4125 19.8444 19.4125 19.4772H20.3483V19.6102C20.3483 19.9074 20.3374 20.1095 20.3295 20.2021C20.2984 20.4051 20.2261 20.5894 20.115 20.7512ZM18.5143 18.1014H19.432V17.6338C19.432 17.1641 19.278 16.93 18.974 16.93C18.6674 16.93 18.5143 17.1641 18.5143 17.6338V18.1014ZM16.0596 21.3011C15.7329 21.3011 15.4172 21.1191 15.1099 20.7404V21.2318H14.1922V14.4333H15.1099V16.6531C15.4063 16.2883 15.722 16.1032 16.0596 16.1032C16.4236 16.1032 16.6702 16.2961 16.7923 16.6764C16.8537 16.8802 16.8848 17.2146 16.8848 17.6945V19.7114C16.8848 20.1788 16.8537 20.5164 16.7923 20.7309C16.6702 21.1074 16.4236 21.3011 16.0596 21.3011ZM15.967 17.6214C15.967 17.1641 15.8325 16.93 15.5688 16.93C15.4172 16.93 15.2639 17.0023 15.1099 17.1532V20.2402C15.2639 20.3942 15.4172 20.4658 15.5688 20.4658C15.8333 20.4658 15.967 20.2402 15.967 19.7837V17.6214ZM12.4803 20.6781C12.1155 21.0965 11.7694 21.3011 11.4318 21.3011C11.1363 21.3011 10.9325 21.1798 10.8399 20.9238C10.7894 20.7707 10.7583 20.5288 10.7583 20.1709V16.1662H11.676V19.8948C11.676 20.1095 11.676 20.2215 11.6846 20.2511C11.7079 20.3942 11.7772 20.4658 11.8993 20.4658C12.0844 20.4658 12.2765 20.3242 12.4803 20.0364V16.1662H13.3996V21.2318H12.4803V20.6781ZM9.52626 21.2318H8.50504V15.3892H7.42549V14.4333H10.6253V15.3892H9.52626V21.2318ZM13.2689 11.4863C12.9695 11.4863 12.8256 11.2499 12.8256 10.7746V8.62254C12.8256 8.14963 12.9695 7.91242 13.2689 7.91242C13.5668 7.91242 13.7107 8.14963 13.7107 8.62254V10.7746C13.7107 11.2499 13.5668 11.4863 13.2689 11.4863Z" fill="white"/>
</svg>
