<svg width="27" height="28" viewBox="0 0 27 28" fill="none" xmlns="http://www.w3.org/2000/svg">
<path fill-rule="evenodd" clip-rule="evenodd" d="M13.7387 27.2486C6.44048 27.2486 0.501465 21.3051 0.501465 13.9985C0.501465 6.69509 6.44048 0.75 13.7387 0.75C21.039 0.75 26.9789 6.69509 26.9789 13.9985C26.9789 21.3051 21.039 27.2486 13.7387 27.2486ZM21.2691 12.4533V9.37854C21.2691 7.77043 19.9645 6.46503 18.3578 6.46503H9.12017C7.51584 6.46503 6.2112 7.77043 6.2112 9.37854V18.6238C6.2112 20.2289 7.51584 21.5344 9.12017 21.5344H18.3578C19.9645 21.5344 21.2691 20.2289 21.2691 18.6238V12.4533ZM18.3578 20.0654H9.12017C8.32254 20.0654 7.67779 19.4207 7.67779 18.6238V12.4533H9.92459C9.73162 12.93 9.62265 13.4537 9.62265 13.9985C9.62265 16.2703 11.4684 18.1206 13.7387 18.1206C16.012 18.1206 17.8577 16.2703 17.8577 13.9985C17.8577 13.4537 17.7464 12.93 17.5535 12.4533H19.8002V18.6238C19.8002 19.4207 19.1548 20.0654 18.3578 20.0654ZM16.973 8.20859L19.1942 8.20028H19.527V10.7543L16.9829 10.7619L16.973 8.20859ZM13.7387 16.651C12.2781 16.651 11.0885 15.4629 11.0885 13.9985C11.0908 13.4219 11.2754 12.8891 11.591 12.4533C12.0723 11.7835 12.8563 11.3484 13.7387 11.3484C14.6241 11.3484 15.4081 11.7858 15.8894 12.4533C16.2019 12.8891 16.3896 13.4219 16.3896 13.9985C16.3896 15.4629 15.1992 16.651 13.7387 16.651Z" fill="white"/>
</svg>
